<?xml version="1.0" standalone="no"?>
<!DOCTYPE svg PUBLIC "-//W3C//DTD SVG 20010904//EN"
 "http://www.w3.org/TR/2001/REC-SVG-20010904/DTD/svg10.dtd">
<svg version="1.0" xmlns="http://www.w3.org/2000/svg"
 width="1280.000000pt" height="1280.000000pt" viewBox="0 0 1280.000000 1280.000000"
 preserveAspectRatio="xMidYMid meet">

<g transform="translate(0.000000,1280.000000) scale(0.100000,-0.100000)"
fill="#000000" stroke="none">
<path d="M6049 12695 c-9 -8 -143 -22 -429 -43 -47 -4 -91 -11 -98 -15 -7 -5
-48 -13 -90 -18 -161 -20 -191 -25 -332 -59 -19 -4 -80 -16 -135 -25 -55 -9
-115 -23 -133 -31 -18 -8 -40 -14 -49 -14 -18 0 -38 -6 -154 -45 -41 -14 -84
-25 -95 -25 -11 0 -28 -6 -39 -14 -20 -13 -120 -53 -160 -63 -11 -2 -29 -8
-40 -13 -11 -5 -60 -23 -110 -40 -49 -17 -104 -38 -122 -46 -17 -8 -36 -14
-42 -14 -6 0 -19 -4 -29 -9 -9 -6 -62 -31 -117 -57 -85 -40 -251 -121 -312
-153 -10 -5 -40 -20 -68 -33 -92 -45 -179 -95 -270 -154 -49 -32 -99 -63 -110
-69 -42 -23 -277 -176 -291 -190 -6 -5 -32 -26 -58 -45 -26 -19 -68 -52 -92
-72 -25 -21 -49 -38 -54 -38 -9 0 -103 -75 -162 -129 -21 -18 -47 -40 -58 -48
-12 -8 -33 -26 -48 -40 -15 -14 -70 -63 -122 -108 -161 -139 -450 -444 -607
-641 -29 -36 -86 -105 -126 -154 -62 -73 -165 -220 -342 -484 -16 -25 -43 -69
-60 -98 -16 -29 -47 -82 -68 -118 -21 -36 -42 -74 -48 -85 -5 -11 -28 -51 -50
-90 -22 -38 -60 -113 -85 -165 -25 -52 -67 -140 -94 -195 -54 -113 -80 -170
-80 -179 0 -3 -14 -36 -31 -73 -38 -81 -73 -174 -101 -263 -11 -36 -26 -81
-33 -100 -8 -19 -24 -69 -36 -110 -12 -41 -32 -107 -45 -147 -13 -39 -24 -80
-24 -92 0 -11 -4 -23 -10 -26 -5 -3 -10 -18 -10 -32 0 -14 -7 -48 -16 -77 -29
-93 -34 -112 -34 -139 0 -14 -4 -28 -9 -31 -4 -3 -11 -29 -15 -58 -4 -29 -11
-57 -16 -63 -4 -5 -10 -30 -13 -55 -5 -42 -10 -83 -38 -285 -23 -169 -30 -234
-39 -355 -4 -69 -13 -161 -19 -205 -13 -103 -13 -618 0 -710 6 -38 14 -131 19
-205 19 -281 63 -606 105 -780 9 -36 20 -83 25 -105 4 -22 16 -67 25 -100 9
-33 19 -75 22 -93 3 -18 9 -35 14 -38 5 -3 9 -14 9 -24 0 -10 16 -70 35 -132
20 -62 41 -131 46 -153 6 -22 15 -51 21 -64 5 -14 25 -72 44 -130 33 -101 43
-126 85 -215 11 -22 19 -43 19 -48 0 -8 34 -85 85 -193 19 -38 43 -92 55 -120
60 -139 94 -200 326 -600 13 -22 27 -47 31 -55 4 -8 50 -76 103 -150 52 -74
106 -152 119 -174 13 -21 63 -86 110 -145 47 -58 99 -124 116 -146 143 -194
611 -670 818 -833 23 -18 60 -49 82 -68 37 -32 87 -71 194 -148 23 -17 41 -33
41 -38 0 -4 5 -8 11 -8 6 0 39 -22 74 -50 35 -27 67 -50 72 -50 5 0 20 -11 33
-25 13 -14 27 -25 32 -25 5 0 60 -33 121 -73 62 -41 119 -77 127 -80 8 -4 47
-27 85 -52 39 -24 149 -84 245 -133 96 -48 184 -93 195 -100 29 -17 304 -142
313 -142 12 0 224 -80 280 -106 29 -13 58 -24 64 -24 14 0 72 -19 115 -37 17
-7 38 -13 46 -13 9 0 18 -4 21 -9 3 -5 20 -11 38 -14 33 -5 88 -22 120 -38 10
-5 30 -9 46 -9 15 0 37 -7 48 -15 10 -8 30 -15 44 -15 14 0 68 -10 120 -21 52
-11 122 -23 156 -28 34 -5 70 -14 82 -20 11 -6 40 -11 63 -11 23 0 56 -4 73
-9 69 -22 267 -46 479 -61 81 -5 157 -14 167 -20 27 -14 730 -13 767 1 15 6
91 15 168 20 196 12 308 24 323 33 7 4 45 12 85 17 158 19 192 25 203 32 6 3
33 9 60 12 27 3 63 10 79 15 26 9 84 19 205 37 19 3 44 12 55 19 11 8 33 14
50 14 17 0 35 4 40 8 6 5 39 17 75 26 65 18 80 23 135 46 17 7 55 20 85 30 30
10 100 35 155 55 55 20 134 48 175 62 41 13 85 31 97 39 12 8 29 14 37 14 29
0 604 299 739 383 76 48 140 87 142 87 7 0 215 139 266 178 20 15 94 69 165
121 71 52 156 120 190 151 33 31 100 89 148 129 48 40 136 121 196 179 60 59
121 118 135 132 15 14 46 46 69 72 23 26 81 89 128 140 48 51 96 104 108 118
12 14 29 34 39 46 10 11 37 47 61 80 42 57 119 154 131 164 13 12 89 117 89
124 0 4 33 52 73 107 104 144 199 298 322 519 32 58 72 130 89 160 33 58 55
103 79 160 9 19 27 62 42 95 14 33 30 69 35 80 4 11 20 47 35 80 15 33 31 69
35 80 4 11 20 45 34 76 14 31 26 62 26 68 0 7 6 25 14 39 26 47 75 194 95 282
5 19 13 46 19 60 11 27 44 138 62 210 6 25 16 59 22 75 5 17 14 48 19 70 21
100 26 122 35 136 4 8 12 37 16 64 15 101 26 164 32 173 3 5 8 34 12 63 3 30
9 58 12 63 6 11 17 103 32 256 5 58 15 155 22 215 14 132 21 999 8 1067 -5 26
-12 80 -14 120 -13 186 -39 409 -49 425 -4 6 -9 36 -12 66 -2 30 -9 67 -15 81
-5 15 -10 42 -10 60 0 17 -4 36 -9 42 -5 5 -11 27 -13 49 -6 47 -27 133 -39
157 -5 10 -9 28 -9 40 0 12 -6 40 -14 63 -8 22 -19 60 -26 85 -6 25 -16 63
-22 85 -55 208 -155 500 -198 577 -6 10 -10 23 -10 29 0 5 -11 35 -25 65 -14
30 -25 56 -25 59 0 2 -13 32 -29 67 -16 35 -45 101 -66 148 -55 127 -68 154
-82 168 -7 7 -13 17 -13 21 0 28 -319 571 -368 625 -10 11 -22 28 -25 36 -10
24 -129 194 -189 270 -15 19 -55 68 -88 109 -33 40 -66 83 -72 94 -6 11 -24
36 -42 55 -65 71 -81 89 -165 181 -115 125 -408 413 -498 490 -40 34 -85 73
-100 88 -49 45 -138 116 -218 173 -43 30 -92 67 -109 81 -123 104 -539 368
-746 474 -263 134 -474 235 -492 235 -8 0 -18 4 -24 9 -8 8 -84 37 -234 91
-19 7 -44 16 -55 21 -11 4 -42 15 -70 24 -27 9 -58 21 -67 26 -10 5 -26 9 -35
9 -10 0 -27 7 -37 15 -11 8 -29 15 -41 15 -12 0 -25 3 -29 7 -7 7 -160 51
-211 60 -16 3 -36 10 -43 16 -7 6 -34 14 -60 19 -26 4 -85 15 -132 24 -47 8
-114 19 -149 24 -35 5 -68 14 -75 19 -6 5 -31 11 -56 14 -165 19 -220 28 -244
37 -15 5 -60 10 -100 10 -39 0 -76 4 -81 9 -6 5 -59 12 -120 15 -60 2 -126 8
-145 12 -44 9 -713 17 -721 9z m646 -436 c240 -17 433 -38 625 -68 235 -36
253 -40 330 -60 41 -12 87 -21 102 -21 15 0 30 -4 33 -10 3 -5 18 -10 33 -10
15 -1 38 -7 52 -15 14 -8 37 -14 52 -15 15 0 30 -4 33 -10 3 -5 17 -10 30 -10
13 0 39 -6 57 -14 18 -8 53 -20 78 -27 25 -7 49 -16 54 -21 6 -4 17 -8 25 -8
9 0 29 -7 45 -15 15 -8 36 -15 45 -15 9 0 21 -4 27 -9 5 -4 46 -20 92 -35 45
-14 96 -33 112 -41 15 -8 50 -22 77 -31 46 -16 501 -239 613 -302 54 -30 114
-68 326 -207 59 -38 114 -74 122 -80 27 -17 153 -113 232 -175 41 -33 80 -60
87 -60 7 0 16 -6 20 -12 4 -7 40 -40 78 -73 63 -53 177 -158 290 -266 107
-101 351 -365 420 -453 17 -21 43 -53 58 -70 73 -81 245 -315 366 -500 8 -11
31 -46 51 -76 21 -30 56 -90 79 -133 23 -43 51 -93 61 -110 116 -197 185 -336
254 -517 3 -8 10 -22 15 -30 10 -16 59 -123 71 -155 4 -11 15 -40 25 -65 10
-25 21 -54 26 -65 4 -11 15 -40 23 -65 8 -25 20 -58 26 -75 24 -59 33 -85 58
-180 6 -22 19 -67 28 -100 10 -33 21 -78 25 -100 4 -22 12 -53 17 -70 6 -16
16 -50 22 -75 6 -25 17 -67 25 -95 17 -61 24 -95 33 -160 4 -27 11 -55 15 -62
11 -17 43 -238 52 -358 3 -38 10 -86 15 -105 5 -19 11 -87 14 -150 2 -63 10
-199 16 -301 9 -141 9 -228 0 -365 -7 -98 -14 -228 -16 -289 -3 -60 -9 -134
-14 -164 -6 -30 -10 -74 -10 -97 0 -23 -4 -64 -10 -91 -5 -26 -16 -94 -25
-151 -9 -57 -20 -114 -25 -128 -6 -14 -10 -37 -10 -51 0 -15 -4 -40 -9 -57
-22 -72 -48 -184 -58 -246 -3 -19 -9 -39 -13 -45 -7 -9 -38 -120 -59 -215 -5
-19 -16 -57 -25 -85 -9 -27 -21 -66 -27 -85 -12 -40 -56 -165 -69 -195 -5 -11
-22 -54 -39 -96 -16 -41 -40 -95 -52 -120 -26 -55 -39 -83 -79 -184 -34 -83
-159 -330 -191 -377 -11 -14 -19 -31 -19 -36 0 -6 -6 -17 -12 -24 -7 -7 -31
-47 -52 -88 -57 -109 -315 -492 -409 -607 -276 -338 -285 -348 -528 -593 -210
-212 -346 -328 -658 -562 -164 -124 -162 -123 -201 -144 -19 -10 -58 -36 -87
-56 -29 -21 -55 -38 -58 -38 -3 0 -39 -21 -80 -47 -41 -27 -89 -57 -107 -67
-55 -31 -468 -239 -548 -275 -41 -18 -93 -42 -116 -52 -22 -10 -78 -30 -124
-44 -46 -14 -89 -30 -94 -35 -6 -6 -17 -10 -26 -10 -8 0 -42 -11 -75 -24 -93
-37 -187 -68 -223 -73 -18 -3 -35 -9 -38 -14 -3 -5 -18 -9 -33 -9 -15 0 -36
-7 -47 -15 -10 -8 -30 -15 -43 -15 -23 0 -42 -5 -128 -32 -21 -6 -58 -15 -83
-20 -25 -5 -65 -13 -90 -18 -87 -17 -306 -52 -375 -60 -38 -4 -110 -13 -160
-19 -239 -30 -296 -32 -685 -29 -396 5 -645 19 -664 38 -6 6 -37 10 -71 10
-33 0 -76 4 -95 10 -19 5 -84 16 -145 24 -60 9 -132 20 -160 26 -27 6 -63 13
-80 16 -27 4 -86 20 -171 45 -17 5 -39 9 -50 9 -11 0 -29 7 -40 15 -10 8 -33
15 -51 15 -17 0 -35 5 -38 10 -3 6 -21 10 -38 10 -18 0 -41 7 -51 15 -11 8
-30 15 -42 15 -13 0 -26 5 -29 10 -3 6 -16 10 -29 10 -12 0 -26 4 -31 9 -6 5
-37 16 -70 26 -33 10 -65 22 -71 26 -6 5 -42 18 -80 29 -38 12 -78 25 -89 30
-11 5 -65 28 -120 51 -106 45 -589 288 -634 318 -67 46 -150 98 -178 113 -13
6 -23 15 -23 20 0 4 -5 8 -10 8 -13 0 -233 144 -282 184 -69 58 -193 156 -244
193 -66 48 -343 301 -454 413 -110 111 -236 251 -334 370 -44 52 -87 104 -97
115 -40 44 -77 92 -104 135 -15 25 -44 65 -64 89 -41 51 -40 49 -143 204 -42
63 -91 141 -108 173 -17 32 -37 66 -45 74 -8 9 -15 21 -15 26 0 5 -16 33 -35
61 -36 53 -130 235 -205 398 -23 50 -52 113 -65 140 -55 118 -75 165 -75 177
0 8 -4 18 -8 24 -19 21 -122 322 -122 355 0 10 -4 21 -10 24 -5 3 -10 19 -10
34 0 15 -7 36 -15 47 -8 10 -15 28 -15 38 0 20 -12 61 -35 126 -7 19 -19 62
-26 95 -7 33 -16 67 -20 76 -5 9 -13 45 -19 80 -7 35 -16 84 -21 109 -14 65
-27 135 -39 215 -5 39 -12 77 -16 85 -14 35 -39 326 -54 630 -12 222 -7 562
10 755 26 287 32 345 45 410 15 73 22 113 35 205 10 63 23 126 46 225 9 39 18
82 21 98 3 15 9 30 14 33 5 3 9 23 9 44 0 21 4 41 9 45 5 3 12 20 16 38 8 38
23 88 40 137 7 19 23 69 35 110 34 117 100 309 127 370 14 30 32 71 40 90 8
19 25 58 38 85 47 103 83 182 116 254 19 41 42 89 51 105 10 17 34 60 53 96
20 36 49 85 65 110 16 25 33 52 37 60 15 33 108 187 130 216 12 17 23 35 23
41 0 5 11 20 25 33 14 13 25 28 25 32 0 8 36 60 123 176 15 20 39 54 53 76 33
49 137 178 159 196 10 8 44 48 75 90 66 86 389 416 529 541 52 46 102 91 111
100 10 9 66 54 126 100 60 45 134 104 164 129 30 26 80 63 110 83 30 20 69 46
85 58 182 126 414 264 615 364 96 48 189 95 205 105 17 10 35 19 42 19 7 1 45
16 85 35 40 19 123 53 183 77 61 23 130 50 155 60 25 10 65 23 89 29 24 7 51
15 60 20 9 4 36 13 61 20 25 6 58 18 73 26 16 8 39 14 52 14 13 0 27 5 30 10
3 6 21 10 38 10 18 0 41 6 52 14 19 13 29 16 125 34 25 4 51 12 58 16 11 7 46
14 172 35 30 5 93 16 140 24 47 8 126 20 175 26 116 14 158 20 225 30 30 5 96
10 145 11 50 1 99 5 110 10 29 12 493 12 670 -1z"/>
<path d="M5910 11990 c-25 -4 -86 -10 -135 -13 -50 -3 -111 -11 -135 -16 -25
-6 -97 -17 -160 -26 -174 -24 -212 -31 -243 -43 -16 -7 -41 -12 -57 -12 -16 0
-32 -4 -35 -10 -3 -5 -24 -10 -45 -10 -21 0 -41 -4 -44 -9 -3 -5 -20 -11 -38
-14 -45 -7 -119 -28 -140 -38 -10 -5 -26 -9 -35 -9 -15 0 -64 -15 -128 -40
-34 -13 -208 -71 -255 -85 -86 -25 -104 -33 -315 -130 -27 -13 -125 -59 -217
-104 -92 -45 -169 -81 -173 -81 -3 0 -21 -11 -39 -25 -18 -14 -36 -25 -40 -25
-4 0 -37 -19 -74 -43 -76 -49 -294 -187 -320 -202 -42 -25 -120 -80 -147 -105
-16 -16 -48 -41 -71 -56 -121 -85 -225 -170 -372 -309 -41 -38 -84 -77 -96
-85 -19 -14 -117 -113 -279 -284 -32 -33 -79 -88 -105 -120 -26 -33 -70 -85
-98 -115 -148 -163 -418 -564 -589 -876 -12 -22 -31 -56 -43 -75 -25 -42 -56
-105 -107 -220 -20 -47 -46 -102 -56 -123 -11 -22 -19 -43 -19 -47 0 -5 -14
-39 -31 -77 -48 -106 -64 -144 -83 -198 -10 -27 -31 -86 -47 -130 -16 -44 -29
-88 -29 -98 0 -9 -4 -25 -9 -35 -10 -20 -26 -75 -71 -262 -5 -19 -16 -60 -25
-90 -9 -30 -23 -86 -31 -125 -8 -38 -19 -90 -24 -115 -6 -25 -14 -73 -19 -107
-5 -34 -13 -67 -17 -75 -9 -13 -15 -62 -33 -245 -5 -51 -13 -98 -18 -105 -30
-47 -32 -1051 -2 -1128 5 -14 14 -73 19 -130 17 -180 25 -245 34 -258 7 -12
15 -58 32 -182 3 -19 9 -44 15 -55 11 -23 28 -102 36 -160 3 -22 9 -44 14 -49
5 -6 9 -18 9 -27 0 -9 7 -41 16 -70 8 -30 20 -70 24 -89 31 -123 94 -320 115
-361 9 -16 15 -32 15 -36 0 -13 11 -47 25 -78 16 -35 33 -77 70 -165 96 -232
227 -495 313 -628 8 -13 22 -36 31 -52 59 -108 103 -183 113 -195 7 -8 56 -76
108 -151 52 -75 120 -169 150 -209 70 -94 281 -345 346 -411 27 -28 89 -92
138 -143 50 -51 113 -111 140 -134 28 -23 91 -80 141 -126 49 -46 124 -109
165 -139 41 -31 101 -76 132 -101 109 -87 122 -96 259 -186 76 -49 151 -98
166 -107 15 -10 37 -23 47 -30 55 -36 126 -78 132 -78 4 0 21 -10 38 -22 17
-13 47 -31 66 -40 520 -251 559 -268 640 -293 30 -10 80 -26 110 -37 30 -11
64 -22 74 -24 11 -2 24 -8 30 -14 5 -5 22 -10 37 -10 15 0 31 -4 34 -10 3 -5
14 -10 23 -10 9 0 30 -7 46 -15 15 -8 37 -15 47 -15 10 0 28 -4 41 -9 13 -5
52 -17 88 -26 36 -10 74 -21 85 -25 11 -4 47 -13 80 -20 33 -6 85 -18 115 -25
97 -24 242 -49 349 -60 29 -3 56 -7 60 -9 3 -2 47 -7 96 -11 50 -3 104 -10
120 -15 29 -8 377 -25 525 -25 81 0 412 14 470 19 19 2 67 7 105 10 105 10
158 17 180 22 11 2 54 9 95 15 193 27 223 33 350 64 36 9 81 20 100 25 19 5
62 16 95 25 33 9 72 19 88 22 15 3 30 9 33 14 3 5 20 9 39 9 19 0 36 4 39 9 4
5 32 17 64 26 31 9 71 21 87 26 55 19 120 42 140 50 11 4 45 15 75 24 58 18
115 40 140 56 8 5 22 12 30 15 8 3 48 21 88 40 40 19 79 34 87 34 8 0 17 5 21
11 3 6 32 22 63 36 150 66 267 130 485 265 208 129 288 184 417 285 63 50 97
76 159 121 44 33 119 98 270 237 117 107 414 414 462 477 24 31 78 96 121 146
42 50 77 95 77 100 0 5 9 17 20 27 11 10 45 55 75 99 30 45 72 107 94 138 21
31 41 61 43 65 1 4 33 54 70 110 37 56 95 155 130 220 35 65 68 127 75 138 53
91 203 414 203 437 0 4 16 42 35 84 19 41 35 80 35 85 0 5 4 17 9 27 8 15 22
52 90 242 7 19 15 44 18 55 2 11 8 29 13 40 5 11 23 79 40 150 17 72 35 146
40 165 5 19 12 51 15 70 20 123 25 144 34 153 6 6 11 31 11 56 0 26 7 66 16
90 8 24 13 50 10 57 -2 6 2 33 10 60 8 26 14 70 14 98 0 28 4 66 10 84 5 19
10 59 11 90 1 31 8 91 15 132 16 91 20 830 4 876 -5 16 -14 83 -20 149 -17
177 -27 260 -45 355 -9 47 -20 110 -25 140 -5 30 -16 84 -25 120 -9 36 -20 85
-25 110 -6 25 -15 65 -20 90 -6 25 -15 63 -20 85 -17 82 -48 192 -58 212 -6
11 -9 23 -5 26 3 4 -2 18 -11 31 -9 14 -16 31 -16 38 0 11 -53 156 -85 233 -6
17 -18 46 -25 65 -17 50 -25 68 -54 133 -14 32 -26 63 -26 70 0 6 -7 21 -15
31 -8 11 -15 26 -15 33 0 11 -42 101 -88 191 -7 12 -16 30 -20 40 -5 9 -21 40
-37 67 -15 28 -55 100 -88 160 -33 61 -99 169 -146 241 -47 71 -90 137 -96
146 -28 45 -142 206 -158 223 -11 11 -27 31 -36 46 -9 14 -35 47 -58 75 -23
27 -79 94 -125 149 -46 55 -128 147 -184 205 -55 58 -120 126 -145 151 -24 26
-66 66 -94 89 -27 24 -92 83 -143 131 -51 49 -97 89 -102 89 -4 0 -21 12 -37
28 -15 15 -44 38 -65 52 -20 14 -91 67 -159 118 -68 52 -162 119 -209 149
-170 109 -326 204 -367 225 -24 12 -43 25 -43 30 0 4 -5 8 -11 8 -10 0 -268
121 -299 141 -8 5 -22 12 -30 15 -21 9 -72 33 -90 43 -8 5 -28 14 -45 21 -16
7 -43 19 -60 26 -16 7 -48 20 -70 29 -22 9 -49 20 -60 25 -11 5 -47 16 -80 25
-33 9 -71 21 -85 27 -28 11 -76 27 -162 53 -32 9 -60 21 -64 26 -3 5 -17 9
-32 9 -15 0 -54 10 -87 21 -77 27 -119 39 -175 49 -43 8 -62 13 -170 38 -104
25 -161 34 -410 66 -58 8 -125 14 -149 15 -24 1 -66 6 -93 11 -59 12 -851 11
-918 0z m780 -425 c30 -8 92 -24 137 -36 50 -13 90 -30 103 -43 116 -122 145
-190 135 -321 -14 -175 -80 -312 -175 -360 -51 -26 -80 -57 -80 -87 0 -9 31
-74 69 -145 38 -70 74 -146 81 -168 7 -22 21 -52 31 -66 45 -65 45 -110 -3
-135 -38 -20 -149 -30 -175 -16 -36 19 -191 322 -232 453 -20 62 -56 86 -136
93 -38 3 -81 7 -95 9 -14 2 -43 -3 -64 -11 -30 -12 -50 -13 -85 -6 -63 13 -92
4 -114 -34 -15 -25 -19 -50 -18 -100 8 -357 8 -375 -11 -394 -10 -10 -29 -18
-42 -18 -13 0 -38 -6 -56 -13 -43 -19 -75 -11 -106 26 -24 28 -26 36 -19 82 4
27 6 57 6 65 -2 31 -12 266 -12 295 0 17 0 95 1 175 1 80 0 264 -3 409 -4 325
-5 323 93 332 36 4 148 5 250 4 102 -2 202 1 224 6 27 7 52 7 87 -2 43 -11 56
-11 92 3 53 21 52 21 117 3z m-1887 -222 c37 -36 57 -74 57 -112 0 -28 -22
-61 -40 -61 -5 0 -38 -13 -73 -30 -36 -16 -70 -30 -77 -30 -6 0 -32 -14 -57
-31 -25 -17 -82 -42 -127 -54 -81 -22 -138 -47 -206 -90 -19 -12 -64 -32 -100
-45 -137 -47 -143 -56 -95 -131 19 -29 37 -69 41 -89 8 -49 34 -108 50 -114
19 -7 44 3 74 29 14 12 48 28 75 35 28 7 87 28 132 46 94 38 113 36 151 -20
58 -85 43 -140 -52 -193 -32 -18 -70 -36 -85 -40 -14 -3 -30 -9 -36 -13 -5 -5
-30 -13 -55 -20 -69 -18 -90 -35 -90 -73 0 -57 15 -102 83 -245 29 -60 118
-69 189 -18 29 20 89 46 150 65 107 33 119 39 232 103 38 22 103 50 145 63 42
13 89 28 104 34 41 16 82 13 100 -6 22 -26 40 -101 32 -139 -10 -54 -65 -85
-238 -135 -59 -17 -87 -31 -116 -60 -28 -26 -52 -39 -82 -44 -24 -4 -63 -16
-87 -26 -23 -11 -57 -22 -75 -26 -17 -4 -71 -30 -118 -58 -97 -58 -139 -77
-227 -99 -99 -26 -123 -6 -157 124 -9 36 -20 70 -25 75 -4 6 -11 25 -15 43 -4
19 -19 48 -34 65 -27 31 -63 123 -95 239 -9 32 -36 86 -61 122 -37 55 -105
221 -105 258 0 6 -29 69 -65 140 -36 72 -65 138 -65 148 0 18 115 110 137 110
7 0 29 9 48 20 20 11 71 30 113 41 42 12 97 32 122 45 116 62 231 113 290 129
36 9 85 31 110 47 91 62 172 69 223 21z m3657 -148 c14 -8 43 -15 65 -15 62
-1 136 -24 220 -69 42 -23 83 -48 91 -54 40 -34 164 -160 164 -166 0 -4 13
-27 29 -52 16 -24 44 -79 61 -123 37 -91 33 -141 -10 -163 -44 -20 -105 -35
-135 -31 -28 3 -32 9 -58 88 -21 64 -37 94 -65 121 -20 20 -46 51 -57 69 -15
24 -49 48 -130 91 -100 53 -116 59 -172 59 -34 0 -74 5 -89 10 -20 8 -38 7
-68 -3 -23 -8 -66 -22 -96 -32 -88 -29 -123 -50 -183 -112 -95 -99 -125 -154
-132 -243 -2 -30 -7 -71 -10 -91 -13 -72 44 -234 106 -300 19 -19 45 -49 59
-66 14 -17 50 -43 80 -58 30 -15 57 -30 60 -34 3 -3 28 -17 55 -29 67 -31 217
-39 288 -16 27 9 50 14 51 13 12 -13 96 -191 96 -203 0 -14 -51 -36 -148 -62
-60 -16 -194 -19 -221 -4 -10 5 -54 17 -97 26 -76 15 -113 29 -124 44 -3 5
-34 23 -70 41 -35 18 -85 54 -111 79 -26 26 -58 55 -71 66 -42 33 -90 109
-165 259 -29 58 -31 66 -32 201 -1 103 3 154 13 186 9 24 18 61 22 82 10 67
87 195 167 279 41 42 79 77 85 77 6 0 28 15 50 34 59 49 223 100 324 101 43 1
81 4 84 8 12 11 47 7 74 -8z m-5630 -1073 c14 -9 31 -22 39 -29 7 -8 29 -22
50 -33 20 -10 47 -31 60 -45 13 -14 29 -25 37 -25 8 0 31 -15 51 -34 21 -18
49 -39 63 -46 14 -7 39 -24 55 -37 67 -54 229 -173 237 -173 4 0 30 -20 58
-45 28 -25 56 -45 62 -45 7 0 27 -14 45 -32 17 -17 48 -41 67 -52 18 -12 68
-47 110 -80 92 -71 101 -96 62 -174 -16 -32 -38 -58 -56 -67 -27 -14 -33 -14
-62 0 -73 35 -115 62 -151 98 -21 20 -44 37 -51 37 -7 0 -25 14 -42 31 -16 17
-58 48 -94 70 -36 22 -93 63 -127 92 -34 28 -89 71 -123 95 -49 34 -65 41 -76
31 -19 -16 -18 -38 6 -79 61 -106 195 -385 217 -453 15 -44 37 -95 50 -113 31
-46 50 -86 47 -101 -1 -7 -2 -17 -3 -21 -2 -13 -49 -32 -80 -32 -16 0 -48 7
-72 15 -24 9 -83 20 -131 25 -49 5 -125 16 -171 24 -45 8 -121 22 -168 30 -48
9 -98 16 -112 16 -14 0 -37 5 -51 11 -20 9 -29 9 -40 -1 -20 -16 -3 -50 25
-50 11 0 41 -21 68 -47 62 -62 140 -127 169 -142 12 -7 39 -28 58 -47 20 -19
40 -34 45 -34 4 0 31 -20 59 -45 28 -25 57 -45 65 -45 7 0 26 -18 42 -40 15
-22 43 -47 60 -55 45 -22 58 -48 39 -83 -8 -15 -22 -42 -32 -61 -20 -37 -67
-71 -102 -71 -15 0 -29 11 -44 35 -11 20 -37 45 -58 55 -21 11 -47 31 -58 44
-10 14 -32 31 -48 37 -16 7 -41 24 -56 38 -15 13 -43 34 -62 45 -54 33 -142
103 -163 129 -10 13 -30 30 -43 37 -14 7 -45 30 -70 50 -25 21 -70 53 -100 73
-30 19 -75 54 -100 78 -54 52 -77 72 -152 126 -91 68 -100 133 -30 211 62 69
92 71 332 31 63 -11 130 -24 148 -30 17 -6 74 -14 125 -19 50 -4 124 -16 162
-25 104 -26 134 -29 150 -15 8 7 15 20 15 30 0 19 -55 137 -101 215 -16 28
-34 68 -39 90 -13 48 -51 135 -60 135 -3 0 -14 24 -25 53 -23 65 -57 134 -91
184 -23 34 -25 44 -19 92 10 79 51 168 84 179 31 12 66 6 101 -16z m3910 -291
c110 -9 248 -31 280 -44 8 -3 31 -8 50 -11 69 -9 145 -28 155 -37 5 -5 18 -9
28 -9 18 0 215 -63 282 -90 17 -7 39 -16 50 -20 11 -4 36 -15 55 -23 19 -8 62
-25 95 -37 52 -20 186 -87 336 -167 23 -12 50 -29 59 -38 10 -9 31 -24 47 -33
114 -67 142 -85 158 -102 10 -11 22 -20 28 -20 10 0 134 -96 139 -108 2 -4 30
-28 63 -54 138 -106 438 -423 510 -538 15 -25 47 -67 69 -95 50 -60 115 -155
145 -210 58 -107 97 -175 109 -187 6 -6 12 -20 12 -29 0 -10 5 -21 10 -24 6
-3 10 -13 10 -21 0 -8 10 -31 23 -52 13 -20 41 -77 62 -127 21 -49 42 -94 47
-99 4 -6 8 -22 8 -36 0 -14 4 -30 9 -36 14 -13 49 -119 66 -194 9 -36 22 -90
31 -120 9 -30 19 -75 23 -100 4 -25 10 -51 14 -58 15 -22 33 -133 56 -337 5
-50 15 -111 20 -135 13 -56 14 -480 2 -513 -5 -14 -13 -71 -16 -128 -4 -57
-11 -108 -15 -114 -5 -5 -10 -37 -13 -70 -2 -33 -12 -89 -21 -125 -10 -36 -19
-81 -22 -100 -3 -19 -9 -44 -13 -55 -5 -11 -14 -40 -20 -65 -24 -93 -42 -166
-48 -195 -3 -16 -12 -39 -19 -50 -8 -11 -14 -28 -14 -37 0 -10 -4 -26 -9 -36
-5 -9 -21 -46 -36 -82 -40 -93 -220 -454 -263 -525 -33 -56 -147 -215 -259
-363 -58 -77 -389 -415 -458 -468 -27 -21 -75 -60 -106 -87 -31 -26 -99 -76
-152 -110 -52 -34 -128 -84 -168 -111 -69 -46 -288 -161 -375 -197 -21 -9 -65
-28 -97 -43 -32 -14 -61 -26 -65 -26 -5 0 -32 -11 -60 -25 -29 -14 -59 -25
-67 -25 -8 0 -23 -4 -33 -9 -21 -10 -77 -30 -117 -41 -16 -5 -57 -16 -90 -25
-132 -36 -201 -49 -445 -80 -272 -35 -618 -35 -840 1 -32 5 -72 10 -235 29
-27 4 -59 10 -70 15 -11 5 -40 13 -65 20 -90 23 -116 29 -145 35 -16 4 -43 13
-60 20 -16 7 -52 20 -80 28 -56 17 -384 155 -456 192 -103 53 -167 89 -219
124 -30 20 -62 41 -72 46 -67 39 -232 157 -278 200 -30 28 -66 58 -80 67 -82
51 -381 361 -485 502 -27 38 -64 85 -81 105 -47 55 -155 218 -186 280 -15 31
-41 79 -57 106 -17 28 -47 84 -67 125 -19 41 -44 91 -53 110 -33 63 -78 183
-121 320 -23 74 -49 152 -56 173 -8 20 -14 48 -14 62 0 13 -4 27 -10 30 -5 3
-10 21 -10 39 0 17 -4 36 -9 41 -5 6 -12 31 -14 57 -3 25 -10 55 -16 67 -6 11
-11 38 -11 60 0 23 -6 67 -14 99 -46 182 -48 685 -5 952 6 36 14 90 18 120 3
30 9 60 13 65 3 6 9 32 13 60 3 27 10 54 14 60 5 5 11 26 14 45 11 71 25 122
36 133 6 6 11 20 11 31 0 20 12 61 35 126 8 19 21 60 30 90 8 30 23 73 32 95
8 22 19 49 23 60 33 82 184 376 241 465 5 8 15 26 22 40 24 48 105 165 132
190 15 14 34 38 42 54 62 119 390 461 588 614 6 4 38 30 71 57 34 28 84 65
110 83 72 48 155 102 160 102 2 0 29 18 60 40 32 22 62 40 67 40 6 0 18 6 26
14 22 20 202 108 286 140 39 15 84 33 100 41 38 17 106 41 170 61 28 9 64 21
80 28 48 21 100 36 122 36 11 0 23 3 27 7 9 10 92 31 166 43 30 6 89 17 130
25 41 9 137 20 214 25 76 5 141 12 145 15 8 8 416 -2 561 -14z m3684 -157 c83
-82 91 -106 56 -151 -11 -14 -20 -38 -20 -53 0 -14 -13 -44 -30 -66 -16 -21
-30 -44 -30 -51 0 -6 -26 -65 -59 -130 -32 -65 -64 -136 -70 -158 -15 -49 -29
-79 -57 -125 -12 -19 -25 -51 -29 -70 -4 -19 -11 -40 -16 -46 -18 -22 -139
-267 -139 -281 0 -8 -9 -31 -20 -51 -26 -48 -80 -169 -80 -178 0 -19 -46 -54
-71 -54 -55 0 -130 106 -131 185 -1 34 16 76 82 209 101 204 101 201 -3 308
-39 41 -101 107 -137 146 -36 40 -85 88 -109 107 -64 51 -114 49 -242 -10 -54
-25 -108 -45 -121 -45 -12 0 -47 -5 -78 -12 -53 -11 -59 -10 -89 12 -72 50
-114 142 -73 157 9 4 40 20 67 36 60 36 127 57 178 57 20 0 45 4 55 9 65 33
159 64 227 73 59 8 91 19 122 40 33 22 64 32 145 44 77 11 112 21 140 40 38
27 108 48 196 59 35 5 63 16 84 33 29 25 76 38 145 41 27 1 43 -11 107 -75z
m-8742 -3454 c62 -31 95 -66 113 -118 32 -94 10 -185 -57 -235 -18 -14 -80
-54 -138 -91 -58 -36 -118 -77 -135 -91 l-30 -25 188 0 187 0 0 -75 0 -75
-290 0 -290 0 0 33 c0 50 45 131 104 184 29 27 98 78 153 115 55 37 110 79
122 94 42 54 39 107 -9 155 -23 24 -37 29 -77 29 -73 0 -110 -33 -122 -110
l-6 -35 -79 -3 -79 -3 5 48 c11 111 85 194 201 224 59 15 192 3 239 -21z m702
0 c93 -44 149 -147 161 -290 11 -146 -24 -289 -88 -358 -12 -13 -44 -36 -72
-50 -43 -22 -62 -25 -145 -25 -111 0 -167 21 -223 83 -61 66 -81 136 -81 280
-1 155 18 229 77 296 66 75 120 95 244 90 59 -3 95 -10 127 -26z m8837 -9 c45
-14 111 -70 132 -113 16 -33 16 -33 -11 -39 -15 -4 -49 -7 -77 -8 -42 -1 -52
3 -70 25 -15 19 -33 27 -66 31 -65 7 -112 -17 -138 -70 -19 -40 -40 -147 -28
-147 3 0 31 14 62 30 75 39 165 42 240 6 89 -42 125 -102 125 -211 0 -102 -43
-170 -138 -216 -64 -31 -190 -38 -263 -14 -61 21 -132 81 -160 138 -62 121
-57 352 9 459 36 57 98 109 154 129 57 20 161 20 229 0z m-723 -363 l2 -358
-90 0 -90 0 0 220 0 220 -85 0 -85 0 0 59 0 58 41 6 c23 3 62 16 88 29 36 19
51 35 71 76 l25 52 60 -2 60 -3 3 -357z m-2879 -3148 c28 0 143 -44 181 -69
14 -9 42 -25 63 -36 88 -44 100 -104 36 -189 -48 -64 -85 -76 -128 -42 -67 54
-108 76 -144 76 -21 0 -54 7 -74 15 -48 20 -83 21 -173 6 -106 -18 -141 -30
-175 -60 -36 -32 -70 -51 -89 -51 -8 0 -23 -15 -34 -32 -12 -18 -34 -51 -51
-73 -71 -94 -86 -144 -89 -295 -2 -84 1 -111 15 -136 10 -17 32 -55 48 -85 57
-102 185 -200 280 -212 22 -3 61 -10 86 -16 30 -7 66 -7 104 -1 32 5 61 8 65
5 8 -5 108 26 141 45 78 45 138 93 164 131 16 24 30 46 32 48 6 8 223 -103
223 -114 0 -6 -27 -51 -60 -98 -65 -93 -169 -187 -207 -187 -12 0 -45 -13 -73
-30 -63 -37 -301 -82 -363 -68 -20 4 -56 9 -80 10 -44 1 -162 35 -212 62 -17
8 -58 27 -93 42 -40 18 -70 38 -84 58 -12 17 -50 64 -86 103 -46 52 -70 91
-87 137 -13 35 -30 75 -39 88 -24 37 -49 185 -41 243 4 28 8 73 9 100 3 58 27
139 63 210 39 77 145 215 171 221 12 4 36 23 52 44 18 23 43 41 60 45 16 3 40
15 54 26 44 34 149 75 226 87 111 18 138 18 215 5 39 -7 81 -13 94 -13z
m-2364 0 c33 -5 89 -18 125 -29 36 -12 115 -26 175 -31 138 -13 164 -17 247
-41 38 -11 101 -21 142 -23 132 -6 179 -43 184 -144 3 -76 -16 -114 -59 -114
-39 -1 -121 12 -159 24 -19 7 -60 11 -90 10 -37 -2 -79 6 -127 22 -71 24 -109
30 -250 41 -40 3 -91 12 -114 20 -47 17 -105 20 -114 6 -3 -6 -7 -43 -9 -84
-3 -41 -11 -89 -20 -105 -9 -17 -16 -47 -16 -67 0 -29 5 -37 25 -45 14 -5 38
-7 54 -4 17 4 55 -2 93 -14 35 -11 86 -23 113 -27 113 -14 126 -25 127 -113 2
-121 -57 -148 -242 -111 -30 6 -75 17 -99 25 -25 8 -53 14 -63 14 -44 0 -80
-84 -97 -226 -12 -103 -36 -255 -53 -336 -5 -28 -15 -48 -23 -48 -7 0 -48 11
-91 25 -121 39 -133 65 -90 192 13 39 22 73 20 76 -2 2 3 23 11 46 10 30 12
54 6 79 -5 25 -3 49 5 72 7 19 13 45 13 57 1 11 12 53 25 92 17 50 24 90 22
134 -2 69 16 198 38 267 16 50 32 150 41 254 7 81 17 104 48 111 34 7 110 12
127 7 8 -2 42 -8 75 -12z"/>
<path d="M6537 11333 c-4 -4 -49 -8 -100 -10 -50 -1 -110 -4 -132 -4 -22 -1
-70 0 -107 2 -56 3 -71 1 -95 -17 -42 -31 -60 -100 -45 -172 6 -31 8 -77 5
-102 -4 -37 -1 -48 15 -64 19 -16 26 -17 71 -5 39 10 61 10 101 1 42 -10 55
-9 85 5 31 15 43 15 100 4 57 -12 70 -11 105 3 30 12 56 14 96 10 53 -7 57 -5
119 37 74 50 90 79 81 146 -9 64 -35 114 -71 133 -48 25 -212 49 -228 33z"/>
<path d="M6205 9584 c-11 -1 -92 -10 -180 -19 -88 -9 -168 -21 -177 -26 -10
-5 -39 -9 -66 -9 -26 0 -53 -5 -59 -11 -6 -6 -30 -13 -54 -15 -24 -3 -48 -10
-53 -15 -6 -5 -24 -9 -40 -9 -17 0 -40 -7 -50 -15 -11 -8 -32 -15 -47 -15 -15
0 -31 -4 -34 -10 -3 -5 -17 -10 -31 -10 -13 0 -32 -4 -42 -10 -20 -12 -121
-48 -177 -64 -57 -16 -317 -147 -399 -201 -38 -25 -71 -45 -73 -45 -3 0 -44
-25 -138 -86 -27 -18 -73 -52 -101 -76 -28 -23 -93 -77 -144 -118 -172 -138
-396 -381 -519 -564 -8 -11 -31 -41 -50 -66 -20 -24 -41 -53 -47 -65 -6 -11
-35 -63 -65 -115 -48 -82 -196 -377 -219 -435 -7 -19 -32 -82 -50 -131 -5 -12
-12 -42 -15 -68 -4 -25 -11 -49 -16 -52 -5 -3 -9 -15 -9 -27 0 -12 -7 -35 -15
-51 -8 -15 -15 -38 -15 -49 0 -11 -4 -34 -9 -51 -31 -102 -41 -147 -41 -177 0
-19 -4 -39 -9 -44 -5 -6 -11 -46 -14 -90 -3 -44 -11 -94 -17 -110 -8 -20 -12
-127 -12 -320 -1 -273 3 -331 33 -527 5 -32 13 -84 17 -115 5 -32 14 -71 20
-86 7 -16 12 -41 12 -57 0 -16 4 -32 10 -35 6 -3 10 -19 10 -35 0 -16 6 -44
14 -62 8 -18 19 -51 25 -73 40 -150 51 -183 82 -247 5 -10 9 -27 9 -38 0 -11
4 -20 8 -20 5 0 16 -19 26 -42 41 -98 252 -485 286 -523 10 -11 29 -38 44 -60
23 -36 72 -104 94 -130 72 -89 102 -124 122 -146 14 -14 54 -56 90 -95 36 -38
88 -89 116 -114 98 -88 177 -155 193 -164 9 -6 44 -34 79 -63 34 -29 66 -53
71 -53 5 0 23 -11 39 -25 30 -25 606 -316 652 -329 30 -9 65 -23 103 -42 16
-8 40 -14 53 -14 13 0 24 -4 24 -10 0 -5 15 -10 33 -10 18 0 41 -6 52 -14 11
-7 34 -16 50 -19 17 -3 54 -11 84 -16 30 -6 59 -15 65 -21 5 -5 27 -10 49 -10
21 0 46 -4 55 -9 9 -5 55 -12 102 -15 47 -4 128 -11 180 -16 123 -12 398 -12
520 0 52 5 129 12 170 16 41 3 83 10 92 15 9 5 39 9 65 9 27 0 54 5 60 11 6 6
30 13 54 15 24 2 47 8 53 14 5 5 21 10 35 10 15 0 35 7 45 15 11 8 32 15 47
15 15 0 31 5 34 10 3 6 17 10 30 10 13 0 36 6 52 14 15 8 39 18 53 23 59 21
700 350 766 393 76 50 117 84 298 245 108 96 335 344 381 415 12 19 30 41 39
49 9 7 16 18 16 23 0 5 19 35 42 66 24 31 85 136 136 232 52 96 98 177 103
178 5 2 9 8 9 13 0 5 11 32 25 61 14 28 25 55 25 60 0 4 11 31 25 60 14 28 25
60 25 70 0 10 4 18 9 18 5 0 17 26 26 58 9 31 22 68 28 82 11 26 34 118 44
180 3 19 9 40 13 45 5 6 11 31 13 57 3 26 9 53 14 60 4 7 11 38 15 68 4 30 15
102 24 160 23 144 24 693 1 855 -21 152 -26 183 -42 240 -7 28 -21 86 -30 130
-31 150 -39 180 -52 200 -7 11 -13 29 -13 42 0 12 -4 25 -10 28 -5 3 -10 17
-10 29 0 13 -7 29 -15 36 -8 7 -15 21 -15 31 0 11 -4 27 -9 37 -5 9 -20 42
-34 72 -111 246 -215 436 -309 559 -18 24 -60 84 -94 133 -69 101 -361 410
-450 478 -33 24 -80 62 -105 85 -96 85 -193 149 -409 274 -145 83 -242 131
-350 171 -47 18 -94 36 -105 40 -11 5 -45 16 -75 25 -30 10 -63 21 -72 26 -10
5 -26 9 -35 9 -10 0 -31 7 -47 15 -15 8 -41 15 -57 15 -15 0 -31 5 -34 10 -3
6 -21 10 -38 10 -18 0 -45 7 -61 15 -15 8 -48 15 -73 15 -24 0 -54 5 -65 11
-37 20 -259 40 -468 43 -113 1 -214 1 -225 0z m1016 -1720 c50 -54 217 -171
314 -221 55 -28 159 -70 230 -93 153 -50 299 -120 409 -197 64 -45 82 -54 95
-45 32 23 87 43 121 45 l35 2 -1 -47 c0 -25 -9 -65 -19 -88 -19 -41 -19 -42 1
-52 40 -22 117 -112 142 -166 20 -44 26 -78 30 -152 3 -77 8 -101 26 -125 12
-16 35 -56 51 -87 l30 -57 -34 -35 c-77 -80 -228 -116 -353 -85 -29 7 -59 12
-67 10 -27 -5 -157 22 -193 40 -21 11 -53 33 -72 49 -29 26 -41 30 -92 30 -90
0 -243 -30 -248 -49 -3 -9 -10 -44 -16 -79 -10 -58 -9 -67 14 -117 57 -124
139 -229 264 -335 49 -41 55 -51 72 -120 25 -97 29 -330 5 -350 -38 -32 -320
-81 -380 -66 l-28 7 54 55 54 54 -30 28 c-172 159 -389 297 -577 367 l-48 18
0 81 c0 133 37 304 92 424 10 24 17 46 15 49 -14 13 -90 -138 -127 -250 -33
-99 -48 -175 -55 -277 l-7 -95 68 -33 c112 -54 107 -48 88 -130 l-17 -70 33
-58 c18 -33 48 -79 68 -104 20 -25 40 -51 45 -57 8 -10 -45 -13 -257 -13
l-266 0 0 73 c0 168 -64 374 -166 533 -20 31 -33 61 -31 67 3 7 31 25 64 42
108 55 353 211 368 236 11 17 -25 9 -63 -14 -123 -78 -373 -192 -527 -240
-153 -48 -383 -87 -515 -87 l-55 0 -1 198 c0 211 -11 289 -60 447 -45 143
-162 361 -189 351 -13 -5 -13 -4 33 -116 21 -52 45 -120 52 -150 7 -30 17 -66
22 -80 17 -42 31 -170 35 -322 7 -225 -26 -404 -114 -621 -43 -106 -44 -103
70 -223 42 -45 77 -84 77 -88 0 -3 -137 -6 -303 -6 l-304 0 -12 118 c-24 224
-78 423 -166 611 -51 106 -143 261 -156 261 -14 0 -11 -18 10 -58 24 -47 89
-232 102 -291 10 -44 9 -46 -47 -129 -32 -46 -99 -128 -151 -183 -51 -54 -93
-100 -93 -102 0 -2 16 -51 35 -108 19 -57 35 -107 35 -111 0 -5 -95 -8 -210
-8 l-210 0 -34 53 c-44 69 -83 147 -113 226 l-24 64 24 26 c59 63 147 219 182
326 40 119 47 172 50 360 3 190 14 273 50 375 51 145 166 311 275 397 34 26
116 102 183 169 132 130 234 205 361 265 188 87 331 119 544 119 139 0 167 -3
310 -35 328 -74 526 -94 756 -75 135 11 143 13 193 46 47 31 144 82 183 97 27
10 36 7 61 -19z m-871 -2880 c0 -3 -14 -17 -31 -32 -82 -68 -75 -204 11 -259
l32 -20 -29 -22 c-95 -75 -107 -231 -22 -292 35 -25 37 -54 8 -110 -39 -78
-139 -98 -232 -46 -55 31 -69 70 -69 192 0 87 4 113 34 200 41 121 91 214 155
285 63 70 143 128 143 104z m-126 -51 c-83 -78 -152 -196 -198 -335 -32 -100
-41 -198 -26 -306 12 -83 11 -93 -6 -128 -44 -88 -166 -103 -240 -29 -76 75
-73 266 6 455 36 84 105 184 167 239 84 75 239 147 323 150 22 1 19 -4 -26
-46z m337 33 c155 -47 348 -209 417 -348 45 -92 62 -172 62 -287 0 -56 -3
-101 -7 -101 -5 0 -19 26 -32 58 -19 44 -49 81 -130 162 -148 147 -261 209
-422 232 -88 12 -126 34 -154 89 -19 35 -19 67 -1 110 36 87 146 122 267 85z
m22 -341 c102 -41 183 -98 279 -196 62 -63 96 -107 119 -156 43 -87 43 -129 2
-213 -28 -58 -31 -62 -32 -35 -2 37 -32 104 -57 127 -37 32 -95 50 -141 43
-23 -3 -45 -10 -48 -16 -14 -21 -33 -7 -38 29 -6 51 -43 105 -92 137 -35 23
-47 25 -95 20 -116 -12 -128 -11 -160 20 -36 35 -52 87 -41 135 11 50 25 73
67 110 36 31 40 32 104 27 36 -3 96 -18 133 -32z m-46 -286 c58 -22 113 -99
113 -159 0 -84 -107 -194 -263 -269 -138 -67 -217 -86 -347 -85 -65 0 -114 5
-128 13 -41 22 -144 176 -166 249 l-7 22 47 -25 c26 -14 59 -25 74 -25 68 0
138 45 161 104 7 17 14 33 15 35 2 1 28 -9 59 -24 47 -24 64 -27 111 -22 65 7
115 39 143 95 44 85 115 119 188 91z m300 -179 c56 -25 83 -70 83 -138 0 -70
-24 -115 -100 -185 -97 -90 -274 -165 -430 -183 -109 -12 -322 53 -410 125
l-25 21 82 0 c241 0 492 122 615 299 29 41 92 81 128 81 8 0 34 -9 57 -20z"/>
<path d="M10070 9435 c-8 -2 -31 -6 -51 -10 -20 -3 -56 -19 -80 -35 -24 -16
-54 -30 -66 -30 -13 0 -32 -9 -44 -21 -19 -19 -19 -22 -5 -44 8 -13 47 -55 85
-94 95 -98 126 -95 161 14 11 35 31 76 78 161 25 46 -10 73 -78 59z"/>
<path d="M2184 6101 c-55 -33 -69 -79 -69 -226 0 -144 11 -193 52 -225 28 -22
88 -27 126 -9 37 17 57 61 69 153 12 94 0 214 -27 265 -14 29 -68 61 -102 61
-10 0 -32 -9 -49 -19z"/>
<path d="M11053 5843 c-38 -8 -83 -72 -83 -118 0 -49 31 -102 68 -116 36 -14
118 -6 141 15 10 9 24 34 31 56 16 48 3 105 -32 138 -24 21 -85 34 -125 25z"/>
</g>
</svg>
